<?xml version="1.0" standalone="no"?>
<!DOCTYPE svg PUBLIC "-//W3C//DTD SVG 20010904//EN"
 "http://www.w3.org/TR/2001/REC-SVG-20010904/DTD/svg10.dtd">
<svg version="1.0" xmlns="http://www.w3.org/2000/svg"
 width="340.000000pt" height="340.000000pt" viewBox="0 0 340.000000 340.000000"
 preserveAspectRatio="xMidYMid meet">
<metadata>
Created by potrace 1.11, written by Peter Selinger 2001-2013
</metadata>
<g transform="translate(0.000000,340.000000) scale(0.100000,-0.100000)"
fill="#000000" stroke="none">
<path d="M1423 3312 c-18 -31 -48 -85 -68 -119 l-36 -62 38 -21 c21 -11 45
-25 53 -30 8 -5 45 -27 82 -50 l68 -40 14 23 c8 12 39 65 70 117 l56 95 -25
20 c-13 11 -41 29 -62 40 -21 11 -62 35 -92 53 -30 17 -57 32 -60 32 -3 0 -20
-26 -38 -58z"/>
<path d="M985 3241 c-6 -11 -34 -61 -62 -112 -29 -50 -53 -95 -53 -99 0 -5 26
-23 58 -41 31 -17 72 -40 90 -51 18 -10 44 -26 58 -35 15 -9 29 -12 33 -7 5 5
37 58 71 118 59 103 62 110 44 123 -30 22 -211 123 -221 123 -4 0 -13 -9 -18
-19z"/>
<path d="M1744 3143 c-15 -27 -34 -59 -43 -73 -20 -33 -58 -99 -73 -127 -6
-13 -15 -23 -19 -23 -4 0 -74 38 -155 85 -81 47 -148 84 -150 83 -8 -9 -125
-214 -145 -254 -11 -21 -16 -18 -162 67 -84 49 -155 85 -158 81 -13 -13 -139
-235 -139 -244 0 -26 -40 -11 -171 66 -79 46 -147 82 -151 80 -5 -4 -145 -241
-156 -265 -2 -6 35 -30 133 -84 11 -7 212 -123 447 -258 235 -136 431 -247
435 -247 4 1 40 57 78 126 39 69 73 129 76 135 3 6 69 -26 153 -75 81 -47 151
-86 155 -86 4 0 18 19 31 43 13 23 48 84 77 135 l55 93 41 -24 c23 -14 65 -37
92 -52 28 -15 55 -31 60 -35 34 -26 108 -61 115 -53 5 4 41 65 80 136 l73 127
61 -33 c33 -19 111 -64 172 -100 l112 -65 28 17 c16 10 88 50 159 90 72 40
134 76 138 81 5 4 -4 14 -20 22 -15 8 -91 50 -168 95 -77 44 -167 95 -200 113
-113 63 -130 72 -140 80 -5 4 -35 21 -65 37 -49 27 -163 92 -518 294 -57 32
-106 59 -108 59 -2 0 -15 -21 -30 -47z"/>
<path d="M499 3088 c-23 -40 -54 -94 -69 -119 l-28 -45 82 -47 c44 -26 99 -58
122 -72 l41 -24 68 120 c37 66 64 124 59 128 -12 10 -222 131 -228 131 -3 0
-24 -33 -47 -72z"/>
<path d="M225 1808 c3 -387 8 -704 10 -706 2 -2 74 -4 159 -4 l156 0 2 -176 3
-177 145 -1 c80 -1 151 -2 158 -3 9 -1 12 -43 12 -176 l0 -175 143 1 c78 0
150 0 160 0 15 -1 17 -16 17 -176 l0 -175 160 0 160 0 -2 588 -3 587 -145 2
c-80 1 -151 2 -157 2 -10 1 -13 43 -13 176 l0 175 -160 0 -160 0 0 178 0 177
-159 -1 -159 -1 1 196 2 196 -43 28 c-23 15 -45 27 -47 27 -2 0 -56 32 -120
70 -64 39 -118 70 -121 70 -3 0 -2 -316 1 -702z"/>
<path d="M3004 2390 c-43 -26 -99 -58 -124 -72 -174 -97 -788 -453 -798 -463
-11 -10 1 -37 63 -144 41 -73 73 -136 70 -140 -2 -5 -70 -46 -149 -92 l-145
-83 27 -45 c14 -25 50 -86 78 -136 29 -49 51 -92 48 -96 -2 -4 -69 -44 -149
-89 -80 -46 -145 -85 -145 -88 0 -3 35 -66 77 -140 62 -108 74 -136 62 -143
-8 -4 -84 -48 -169 -97 l-155 -89 -3 -197 -2 -197 37 24 c21 13 257 153 524
310 268 157 500 294 517 304 16 10 56 33 87 51 l56 33 -27 46 c-135 232 -133
227 -117 240 9 7 76 47 150 88 73 42 133 79 133 83 0 4 -34 65 -75 136 -41 71
-75 132 -75 136 0 4 10 12 23 18 12 6 45 25 72 41 28 16 82 48 122 70 39 23
74 44 76 48 3 5 -30 69 -73 143 l-79 134 92 54 c51 30 118 68 149 85 32 18 58
35 58 39 0 4 -20 42 -45 84 -25 41 -45 77 -45 79 0 1 -15 27 -33 57 l-33 55
-80 -47z"/>
<path d="M3146 2055 c-60 -35 -113 -68 -118 -73 -5 -5 15 -49 50 -108 32 -54
61 -107 65 -117 8 -22 -3 -27 135 53 61 35 112 70 112 77 0 8 -11 30 -24 51
-13 20 -42 70 -65 110 -23 39 -43 72 -44 72 -1 -1 -51 -30 -111 -65z"/>
<path d="M3032 1620 c-46 -28 -87 -50 -90 -50 -4 0 -19 -10 -34 -23 l-27 -22
62 -105 c34 -58 65 -110 70 -117 5 -8 42 9 122 55 63 37 116 70 117 75 3 8
-124 236 -132 236 -3 0 -43 -22 -88 -49z"/>
<path d="M2895 1172 c-44 -26 -93 -54 -109 -62 -16 -8 -31 -20 -33 -27 -3 -7
25 -64 61 -127 l67 -114 112 65 c61 36 116 68 120 72 5 5 -5 30 -21 58 -16 27
-41 69 -54 94 -37 66 -52 89 -58 89 -3 -1 -41 -22 -85 -48z"/>
<path d="M230 879 c0 -76 3 -139 8 -140 10 -1 245 -1 260 0 9 1 12 36 12 139
l0 138 -140 1 -140 1 0 -139z"/>
<path d="M618 672 l-68 -3 0 -139 0 -140 140 0 140 0 0 140 c0 77 -3 140 -7
141 -33 3 -150 3 -205 1z"/>
<path d="M870 190 l0 -140 139 0 139 0 0 140 0 140 -139 0 -139 0 0 -140z"/>
</g>
</svg>
